STARTFONT 2.1
FONT -Monotype-Courier-Bold-R-Normal--8-80-75-75-M-38-iso8859-7
SIZE 8 75 75
FONTBOUNDINGBOX 5 9 0 -2

STARTPROPERTIES 24
FOUNDRY "Monotype"
FAMILY_NAME "Courier"
WEIGHT_NAME "Bold"
SLANT "R"
SETWIDTH_NAME "Normal"
ADD_STYLE_NAME ""
PIXEL_SIZE 8
POINT_SIZE 80
RESOLUTION_X 75
RESOLUTION_Y 75
SPACING "M"
AVERAGE_WIDTH 38
CHARSET_REGISTRY "iso8859"
CHARSET_ENCODING "7"
FACE_NAME "Courier Bold ISO Latin Greek"
_DEC_DEVICE_FONTNAMES "PS=courier-b-latgreek"
COPYRIGHT "Copyright (c) 1994 Monotype Typography Ltd."
CAP_HEIGHT 5
X_HEIGHT 3
WEIGHT 10
QUAD_WIDTH 5
DEFAULT_CHAR 160
FONT_DESCENT 2
FONT_ASCENT 7
ENDPROPERTIES

CHARS 185

STARTCHAR space
ENCODING 32
SWIDTH 600 0
DWIDTH 5 0
BBX 5 9 0 -2
BITMAP
00
00
00
00
00
00
00
00
00
ENDCHAR

STARTCHAR exclam
ENCODING 33
SWIDTH 600 0
DWIDTH 5 0
BBX 5 9 0 -2
BITMAP
00
20
20
20
20
00
20
00
00
ENDCHAR

STARTCHAR quotedbl
ENCODING 34
SWIDTH 600 0
DWIDTH 5 0
BBX 5 9 0 -2
BITMAP
00
50
50
50
00
00
00
00
00
ENDCHAR

STARTCHAR numbersign
ENCODING 35
SWIDTH 600 0
DWIDTH 5 0
BBX 5 9 0 -2
BITMAP
00
50
50
F8
50
F8
50
50
00
ENDCHAR

STARTCHAR dollar
ENCODING 36
SWIDTH 600 0
DWIDTH 5 0
BBX 5 9 0 -2
BITMAP
00
20
30
40
20
10
60
20
00
ENDCHAR

STARTCHAR percent
ENCODING 37
SWIDTH 600 0
DWIDTH 5 0
BBX 5 9 0 -2
BITMAP
00
00
60
48
30
58
08
00
00
ENDCHAR

STARTCHAR ampersand
ENCODING 38
SWIDTH 600 0
DWIDTH 5 0
BBX 5 9 0 -2
BITMAP
00
00
10
20
28
50
38
00
00
ENDCHAR

STARTCHAR quoteright
ENCODING 39
SWIDTH 600 0
DWIDTH 5 0
BBX 5 9 0 -2
BITMAP
00
20
40
00
00
00
00
00
00
ENDCHAR

STARTCHAR parenleft
ENCODING 40
SWIDTH 600 0
DWIDTH 5 0
BBX 5 9 0 -2
BITMAP
00
20
20
40
40
40
40
20
20
ENDCHAR

STARTCHAR parenright
ENCODING 41
SWIDTH 600 0
DWIDTH 5 0
BBX 5 9 0 -2
BITMAP
00
40
40
20
20
20
20
40
40
ENDCHAR

STARTCHAR asterisk
ENCODING 42
SWIDTH 600 0
DWIDTH 5 0
BBX 5 9 0 -2
BITMAP
00
20
70
20
50
00
00
00
00
ENDCHAR

STARTCHAR plus
ENCODING 43
SWIDTH 600 0
DWIDTH 5 0
BBX 5 9 0 -2
BITMAP
00
00
00
20
70
20
00
00
00
ENDCHAR

STARTCHAR comma
ENCODING 44
SWIDTH 600 0
DWIDTH 5 0
BBX 5 9 0 -2
BITMAP
00
00
00
00
00
00
20
40
00
ENDCHAR

STARTCHAR minus
ENCODING 45
SWIDTH 600 0
DWIDTH 5 0
BBX 5 9 0 -2
BITMAP
00
00
00
00
70
00
00
00
00
ENDCHAR

STARTCHAR period
ENCODING 46
SWIDTH 600 0
DWIDTH 5 0
BBX 5 9 0 -2
BITMAP
00
00
00
00
00
00
20
00
00
ENDCHAR

STARTCHAR slash
ENCODING 47
SWIDTH 600 0
DWIDTH 5 0
BBX 5 9 0 -2
BITMAP
00
10
10
20
20
20
40
40
00
ENDCHAR

STARTCHAR zero
ENCODING 48
SWIDTH 600 0
DWIDTH 5 0
BBX 5 9 0 -2
BITMAP
00
00
30
68
68
68
30
00
00
ENDCHAR

STARTCHAR one
ENCODING 49
SWIDTH 600 0
DWIDTH 5 0
BBX 5 9 0 -2
BITMAP
00
00
60
20
20
20
70
00
00
ENDCHAR

STARTCHAR two
ENCODING 50
SWIDTH 600 0
DWIDTH 5 0
BBX 5 9 0 -2
BITMAP
00
00
60
30
20
40
70
00
00
ENDCHAR

STARTCHAR three
ENCODING 51
SWIDTH 600 0
DWIDTH 5 0
BBX 5 9 0 -2
BITMAP
00
00
70
18
30
18
70
00
00
ENDCHAR

STARTCHAR four
ENCODING 52
SWIDTH 600 0
DWIDTH 5 0
BBX 5 9 0 -2
BITMAP
00
00
10
30
50
78
10
00
00
ENDCHAR

STARTCHAR five
ENCODING 53
SWIDTH 600 0
DWIDTH 5 0
BBX 5 9 0 -2
BITMAP
00
00
70
40
70
18
70
00
00
ENDCHAR

STARTCHAR six
ENCODING 54
SWIDTH 600 0
DWIDTH 5 0
BBX 5 9 0 -2
BITMAP
00
00
38
40
70
68
30
00
00
ENDCHAR

STARTCHAR seven
ENCODING 55
SWIDTH 600 0
DWIDTH 5 0
BBX 5 9 0 -2
BITMAP
00
00
78
48
08
10
10
00
00
ENDCHAR

STARTCHAR eight
ENCODING 56
SWIDTH 600 0
DWIDTH 5 0
BBX 5 9 0 -2
BITMAP
00
00
30
68
30
68
30
00
00
ENDCHAR

STARTCHAR nine
ENCODING 57
SWIDTH 600 0
DWIDTH 5 0
BBX 5 9 0 -2
BITMAP
00
00
30
68
38
08
70
00
00
ENDCHAR

STARTCHAR colon
ENCODING 58
SWIDTH 600 0
DWIDTH 5 0
BBX 5 9 0 -2
BITMAP
00
00
00
20
00
00
20
00
00
ENDCHAR

STARTCHAR semicolon
ENCODING 59
SWIDTH 600 0
DWIDTH 5 0
BBX 5 9 0 -2
BITMAP
00
00
00
20
00
00
20
40
00
ENDCHAR

STARTCHAR less
ENCODING 60
SWIDTH 600 0
DWIDTH 5 0
BBX 5 9 0 -2
BITMAP
00
00
08
30
40
30
08
00
00
ENDCHAR

STARTCHAR equal
ENCODING 61
SWIDTH 600 0
DWIDTH 5 0
BBX 5 9 0 -2
BITMAP
00
00
00
78
00
78
00
00
00
ENDCHAR

STARTCHAR greater
ENCODING 62
SWIDTH 600 0
DWIDTH 5 0
BBX 5 9 0 -2
BITMAP
00
00
40
30
08
30
40
00
00
ENDCHAR

STARTCHAR question
ENCODING 63
SWIDTH 600 0
DWIDTH 5 0
BBX 5 9 0 -2
BITMAP
00
60
10
10
20
00
20
00
00
ENDCHAR

STARTCHAR at
ENCODING 64
SWIDTH 600 0
DWIDTH 5 0
BBX 5 9 0 -2
BITMAP
00
00
20
50
70
50
40
30
00
ENDCHAR

STARTCHAR A
ENCODING 65
SWIDTH 600 0
DWIDTH 5 0
BBX 5 9 0 -2
BITMAP
00
00
60
20
50
70
D8
00
00
ENDCHAR

STARTCHAR B
ENCODING 66
SWIDTH 600 0
DWIDTH 5 0
BBX 5 9 0 -2
BITMAP
00
00
70
28
30
28
70
00
00
ENDCHAR

STARTCHAR C
ENCODING 67
SWIDTH 600 0
DWIDTH 5 0
BBX 5 9 0 -2
BITMAP
00
00
30
68
60
68
30
00
00
ENDCHAR

STARTCHAR D
ENCODING 68
SWIDTH 600 0
DWIDTH 5 0
BBX 5 9 0 -2
BITMAP
00
00
70
28
28
28
70
00
00
ENDCHAR

STARTCHAR E
ENCODING 69
SWIDTH 600 0
DWIDTH 5 0
BBX 5 9 0 -2
BITMAP
00
00
78
28
30
28
78
00
00
ENDCHAR

STARTCHAR F
ENCODING 70
SWIDTH 600 0
DWIDTH 5 0
BBX 5 9 0 -2
BITMAP
00
00
78
28
30
20
70
00
00
ENDCHAR

STARTCHAR G
ENCODING 71
SWIDTH 600 0
DWIDTH 5 0
BBX 5 9 0 -2
BITMAP
00
00
38
40
58
48
30
00
00
ENDCHAR

STARTCHAR H
ENCODING 72
SWIDTH 600 0
DWIDTH 5 0
BBX 5 9 0 -2
BITMAP
00
00
D8
50
70
50
D8
00
00
ENDCHAR

STARTCHAR I
ENCODING 73
SWIDTH 600 0
DWIDTH 5 0
BBX 5 9 0 -2
BITMAP
00
00
70
20
20
20
70
00
00
ENDCHAR

STARTCHAR J
ENCODING 74
SWIDTH 600 0
DWIDTH 5 0
BBX 5 9 0 -2
BITMAP
00
00
38
10
10
50
60
00
00
ENDCHAR

STARTCHAR K
ENCODING 75
SWIDTH 600 0
DWIDTH 5 0
BBX 5 9 0 -2
BITMAP
00
00
58
50
60
50
58
00
00
ENDCHAR

STARTCHAR L
ENCODING 76
SWIDTH 600 0
DWIDTH 5 0
BBX 5 9 0 -2
BITMAP
00
00
70
20
20
28
78
00
00
ENDCHAR

STARTCHAR M
ENCODING 77
SWIDTH 600 0
DWIDTH 5 0
BBX 5 9 0 -2
BITMAP
00
00
88
D8
A8
88
88
00
00
ENDCHAR

STARTCHAR N
ENCODING 78
SWIDTH 600 0
DWIDTH 5 0
BBX 5 9 0 -2
BITMAP
00
00
48
68
58
48
48
00
00
ENDCHAR

STARTCHAR O
ENCODING 79
SWIDTH 600 0
DWIDTH 5 0
BBX 5 9 0 -2
BITMAP
00
00
30
68
68
68
30
00
00
ENDCHAR

STARTCHAR P
ENCODING 80
SWIDTH 600 0
DWIDTH 5 0
BBX 5 9 0 -2
BITMAP
00
00
70
28
30
20
70
00
00
ENDCHAR

STARTCHAR Q
ENCODING 81
SWIDTH 600 0
DWIDTH 5 0
BBX 5 9 0 -2
BITMAP
00
00
30
68
68
68
30
20
18
ENDCHAR

STARTCHAR R
ENCODING 82
SWIDTH 600 0
DWIDTH 5 0
BBX 5 9 0 -2
BITMAP
00
00
70
28
30
28
68
00
00
ENDCHAR

STARTCHAR S
ENCODING 83
SWIDTH 600 0
DWIDTH 5 0
BBX 5 9 0 -2
BITMAP
00
00
38
60
30
08
70
00
00
ENDCHAR

STARTCHAR T
ENCODING 84
SWIDTH 600 0
DWIDTH 5 0
BBX 5 9 0 -2
BITMAP
00
00
F8
A8
20
20
70
00
00
ENDCHAR

STARTCHAR U
ENCODING 85
SWIDTH 600 0
DWIDTH 5 0
BBX 5 9 0 -2
BITMAP
00
00
48
48
48
48
30
00
00
ENDCHAR

STARTCHAR V
ENCODING 86
SWIDTH 600 0
DWIDTH 5 0
BBX 5 9 0 -2
BITMAP
00
00
D8
50
50
20
20
00
00
ENDCHAR

STARTCHAR W
ENCODING 87
SWIDTH 600 0
DWIDTH 5 0
BBX 5 9 0 -2
BITMAP
00
00
D8
88
A8
50
50
00
00
ENDCHAR

STARTCHAR X
ENCODING 88
SWIDTH 600 0
DWIDTH 5 0
BBX 5 9 0 -2
BITMAP
00
00
D8
50
20
50
D8
00
00
ENDCHAR

STARTCHAR Y
ENCODING 89
SWIDTH 600 0
DWIDTH 5 0
BBX 5 9 0 -2
BITMAP
00
00
D8
50
20
20
70
00
00
ENDCHAR

STARTCHAR Z
ENCODING 90
SWIDTH 600 0
DWIDTH 5 0
BBX 5 9 0 -2
BITMAP
00
00
78
50
20
28
78
00
00
ENDCHAR

STARTCHAR bracketleft
ENCODING 91
SWIDTH 600 0
DWIDTH 5 0
BBX 5 9 0 -2
BITMAP
00
60
40
40
40
40
40
60
00
ENDCHAR

STARTCHAR backslash
ENCODING 92
SWIDTH 600 0
DWIDTH 5 0
BBX 5 9 0 -2
BITMAP
00
40
40
20
20
20
10
10
00
ENDCHAR

STARTCHAR bracketright
ENCODING 93
SWIDTH 600 0
DWIDTH 5 0
BBX 5 9 0 -2
BITMAP
00
60
20
20
20
20
20
60
00
ENDCHAR

STARTCHAR asciicircum
ENCODING 94
SWIDTH 600 0
DWIDTH 5 0
BBX 5 9 0 -2
BITMAP
00
00
20
50
00
00
00
00
00
ENDCHAR

STARTCHAR underscore
ENCODING 95
SWIDTH 600 0
DWIDTH 5 0
BBX 5 9 0 -2
BITMAP
00
00
00
00
00
00
00
F8
00
ENDCHAR

STARTCHAR quoteleft
ENCODING 96
SWIDTH 600 0
DWIDTH 5 0
BBX 5 9 0 -2
BITMAP
00
40
20
00
00
00
00
00
00
ENDCHAR

STARTCHAR a
ENCODING 97
SWIDTH 600 0
DWIDTH 5 0
BBX 5 9 0 -2
BITMAP
00
00
00
60
30
50
78
00
00
ENDCHAR

STARTCHAR b
ENCODING 98
SWIDTH 600 0
DWIDTH 5 0
BBX 5 9 0 -2
BITMAP
00
60
20
30
28
28
70
00
00
ENDCHAR

STARTCHAR c
ENCODING 99
SWIDTH 600 0
DWIDTH 5 0
BBX 5 9 0 -2
BITMAP
00
00
00
38
60
60
38
00
00
ENDCHAR

STARTCHAR d
ENCODING 100
SWIDTH 600 0
DWIDTH 5 0
BBX 5 9 0 -2
BITMAP
00
30
10
30
50
50
38
00
00
ENDCHAR

STARTCHAR e
ENCODING 101
SWIDTH 600 0
DWIDTH 5 0
BBX 5 9 0 -2
BITMAP
00
00
00
30
68
70
38
00
00
ENDCHAR

STARTCHAR f
ENCODING 102
SWIDTH 600 0
DWIDTH 5 0
BBX 5 9 0 -2
BITMAP
00
18
20
70
20
20
70
00
00
ENDCHAR

STARTCHAR g
ENCODING 103
SWIDTH 600 0
DWIDTH 5 0
BBX 5 9 0 -2
BITMAP
00
00
00
38
50
50
30
10
60
ENDCHAR

STARTCHAR h
ENCODING 104
SWIDTH 600 0
DWIDTH 5 0
BBX 5 9 0 -2
BITMAP
00
C0
40
70
50
50
D8
00
00
ENDCHAR

STARTCHAR i
ENCODING 105
SWIDTH 600 0
DWIDTH 5 0
BBX 5 9 0 -2
BITMAP
00
20
00
60
20
20
70
00
00
ENDCHAR

STARTCHAR j
ENCODING 106
SWIDTH 600 0
DWIDTH 5 0
BBX 5 9 0 -2
BITMAP
00
20
00
60
20
20
20
20
40
ENDCHAR

STARTCHAR k
ENCODING 107
SWIDTH 600 0
DWIDTH 5 0
BBX 5 9 0 -2
BITMAP
00
60
20
28
30
28
68
00
00
ENDCHAR

STARTCHAR l
ENCODING 108
SWIDTH 600 0
DWIDTH 5 0
BBX 5 9 0 -2
BITMAP
00
60
20
20
20
20
70
00
00
ENDCHAR

STARTCHAR m
ENCODING 109
SWIDTH 600 0
DWIDTH 5 0
BBX 5 9 0 -2
BITMAP
00
00
00
D0
A8
A8
A8
00
00
ENDCHAR

STARTCHAR n
ENCODING 110
SWIDTH 600 0
DWIDTH 5 0
BBX 5 9 0 -2
BITMAP
00
00
00
E0
50
50
D8
00
00
ENDCHAR

STARTCHAR o
ENCODING 111
SWIDTH 600 0
DWIDTH 5 0
BBX 5 9 0 -2
BITMAP
00
00
00
30
68
68
30
00
00
ENDCHAR

STARTCHAR p
ENCODING 112
SWIDTH 600 0
DWIDTH 5 0
BBX 5 9 0 -2
BITMAP
00
00
00
70
28
28
30
20
70
ENDCHAR

STARTCHAR q
ENCODING 113
SWIDTH 600 0
DWIDTH 5 0
BBX 5 9 0 -2
BITMAP
00
00
00
38
50
50
30
10
38
ENDCHAR

STARTCHAR r
ENCODING 114
SWIDTH 600 0
DWIDTH 5 0
BBX 5 9 0 -2
BITMAP
00
00
00
58
20
20
70
00
00
ENDCHAR

STARTCHAR s
ENCODING 115
SWIDTH 600 0
DWIDTH 5 0
BBX 5 9 0 -2
BITMAP
00
00
00
38
60
18
70
00
00
ENDCHAR

STARTCHAR t
ENCODING 116
SWIDTH 600 0
DWIDTH 5 0
BBX 5 9 0 -2
BITMAP
00
00
20
78
20
20
18
00
00
ENDCHAR

STARTCHAR u
ENCODING 117
SWIDTH 600 0
DWIDTH 5 0
BBX 5 9 0 -2
BITMAP
00
00
00
D8
50
50
38
00
00
ENDCHAR

STARTCHAR v
ENCODING 118
SWIDTH 600 0
DWIDTH 5 0
BBX 5 9 0 -2
BITMAP
00
00
00
D8
50
20
20
00
00
ENDCHAR

STARTCHAR w
ENCODING 119
SWIDTH 600 0
DWIDTH 5 0
BBX 5 9 0 -2
BITMAP
00
00
00
88
A8
70
50
00
00
ENDCHAR

STARTCHAR x
ENCODING 120
SWIDTH 600 0
DWIDTH 5 0
BBX 5 9 0 -2
BITMAP
00
00
00
D8
60
70
98
00
00
ENDCHAR

STARTCHAR y
ENCODING 121
SWIDTH 600 0
DWIDTH 5 0
BBX 5 9 0 -2
BITMAP
00
00
00
D8
50
60
20
40
C0
ENDCHAR

STARTCHAR z
ENCODING 122
SWIDTH 600 0
DWIDTH 5 0
BBX 5 9 0 -2
BITMAP
00
00
00
78
10
20
78
00
00
ENDCHAR

STARTCHAR braceleft
ENCODING 123
SWIDTH 600 0
DWIDTH 5 0
BBX 5 9 0 -2
BITMAP
00
10
20
20
40
20
20
10
00
ENDCHAR

STARTCHAR bar
ENCODING 124
SWIDTH 600 0
DWIDTH 5 0
BBX 5 9 0 -2
BITMAP
00
20
20
20
20
20
20
20
00
ENDCHAR

STARTCHAR braceright
ENCODING 125
SWIDTH 600 0
DWIDTH 5 0
BBX 5 9 0 -2
BITMAP
00
40
20
20
10
20
20
40
00
ENDCHAR

STARTCHAR asciitilde
ENCODING 126
SWIDTH 600 0
DWIDTH 5 0
BBX 5 9 0 -2
BITMAP
00
00
00
28
50
00
00
00
00
ENDCHAR

STARTCHAR space
ENCODING 160
SWIDTH 600 0
DWIDTH 5 0
BBX 5 9 0 -2
BITMAP
00
00
00
00
00
00
00
00
00
ENDCHAR

STARTCHAR quoteleft
ENCODING 161
SWIDTH 600 0
DWIDTH 5 0
BBX 5 9 0 -2
BITMAP
00
40
20
00
00
00
00
00
00
ENDCHAR

STARTCHAR quoteright
ENCODING 162
SWIDTH 600 0
DWIDTH 5 0
BBX 5 9 0 -2
BITMAP
00
20
40
00
00
00
00
00
00
ENDCHAR

STARTCHAR sterling
ENCODING 163
SWIDTH 600 0
DWIDTH 5 0
BBX 5 9 0 -2
BITMAP
00
00
18
20
70
20
78
00
00
ENDCHAR

STARTCHAR brokenbar
ENCODING 166
SWIDTH 600 0
DWIDTH 5 0
BBX 5 9 0 -2
BITMAP
00
00
20
20
00
00
20
20
00
ENDCHAR

STARTCHAR section
ENCODING 167
SWIDTH 600 0
DWIDTH 5 0
BBX 5 9 0 -2
BITMAP
00
30
20
60
50
28
10
30
00
ENDCHAR

STARTCHAR dieresis
ENCODING 168
SWIDTH 600 0
DWIDTH 5 0
BBX 5 9 0 -2
BITMAP
00
50
00
00
00
00
00
00
00
ENDCHAR

STARTCHAR copyright
ENCODING 169
SWIDTH 600 0
DWIDTH 5 0
BBX 5 9 0 -2
BITMAP
00
00
70
C8
C0
C8
70
00
00
ENDCHAR

STARTCHAR guillemotleft
ENCODING 171
SWIDTH 600 0
DWIDTH 5 0
BBX 5 9 0 -2
BITMAP
00
00
00
00
28
50
28
00
00
ENDCHAR

STARTCHAR logicalnot
ENCODING 172
SWIDTH 600 0
DWIDTH 5 0
BBX 5 9 0 -2
BITMAP
00
00
00
00
78
08
00
00
00
ENDCHAR

STARTCHAR hyphen
ENCODING 173
SWIDTH 600 0
DWIDTH 5 0
BBX 5 9 0 -2
BITMAP
00
00
00
00
70
00
00
00
00
ENDCHAR

STARTCHAR endash
ENCODING 175
SWIDTH 600 0
DWIDTH 5 0
BBX 5 9 0 -2
BITMAP
00
00
00
00
70
00
00
00
00
ENDCHAR

STARTCHAR degree
ENCODING 176
SWIDTH 600 0
DWIDTH 5 0
BBX 5 9 0 -2
BITMAP
00
20
50
20
00
00
00
00
00
ENDCHAR

STARTCHAR plusminus
ENCODING 177
SWIDTH 600 0
DWIDTH 5 0
BBX 5 9 0 -2
BITMAP
00
00
20
70
20
00
70
00
00
ENDCHAR

STARTCHAR twosuperior
ENCODING 178
SWIDTH 600 0
DWIDTH 5 0
BBX 5 9 0 -2
BITMAP
00
00
40
20
60
00
00
00
00
ENDCHAR

STARTCHAR threesuperior
ENCODING 179
SWIDTH 600 0
DWIDTH 5 0
BBX 5 9 0 -2
BITMAP
00
00
30
10
20
00
00
00
00
ENDCHAR

STARTCHAR acute
ENCODING 180
SWIDTH 600 0
DWIDTH 5 0
BBX 5 9 0 -2
BITMAP
00
20
40
00
00
00
00
00
00
ENDCHAR

STARTCHAR dieresisacute
ENCODING 181
SWIDTH 600 0
DWIDTH 5 0
BBX 5 9 0 -2
BITMAP
00
10
A8
00
00
00
00
00
00
ENDCHAR

STARTCHAR afii9936
ENCODING 182
SWIDTH 600 0
DWIDTH 5 0
BBX 5 9 0 -2
BITMAP
00
00
A0
A0
50
70
D8
00
00
ENDCHAR

STARTCHAR periodcentered
ENCODING 183
SWIDTH 600 0
DWIDTH 5 0
BBX 5 9 0 -2
BITMAP
00
00
00
00
20
00
00
00
00
ENDCHAR

STARTCHAR afii9937
ENCODING 184
SWIDTH 600 0
DWIDTH 5 0
BBX 5 9 0 -2
BITMAP
00
00
F8
A8
30
28
78
00
00
ENDCHAR

STARTCHAR afii9938
ENCODING 185
SWIDTH 600 0
DWIDTH 5 0
BBX 5 9 0 -2
BITMAP
00
00
F8
D0
70
50
D8
00
00
ENDCHAR

STARTCHAR afii9939
ENCODING 186
SWIDTH 600 0
DWIDTH 5 0
BBX 5 9 0 -2
BITMAP
00
00
B8
90
10
10
38
00
00
ENDCHAR

STARTCHAR guillemotright
ENCODING 187
SWIDTH 600 0
DWIDTH 5 0
BBX 5 9 0 -2
BITMAP
00
00
00
00
50
28
50
00
00
ENDCHAR

STARTCHAR afii9940
ENCODING 188
SWIDTH 600 0
DWIDTH 5 0
BBX 5 9 0 -2
BITMAP
00
00
B0
E8
68
68
30
00
00
ENDCHAR

STARTCHAR onehalf
ENCODING 189
SWIDTH 600 0
DWIDTH 5 0
BBX 5 9 0 -2
BITMAP
00
00
80
90
B0
48
18
00
00
ENDCHAR

STARTCHAR afii9941
ENCODING 190
SWIDTH 600 0
DWIDTH 5 0
BBX 5 9 0 -2
BITMAP
00
00
E8
A8
10
10
38
00
00
ENDCHAR

STARTCHAR afii9942
ENCODING 191
SWIDTH 600 0
DWIDTH 5 0
BBX 5 9 0 -2
BITMAP
00
00
B0
C8
48
30
78
00
00
ENDCHAR

STARTCHAR afii9977
ENCODING 192
SWIDTH 600 0
DWIDTH 5 0
BBX 5 9 0 -2
BITMAP
10
A8
00
20
20
20
30
00
00
ENDCHAR

STARTCHAR afii9793
ENCODING 193
SWIDTH 600 0
DWIDTH 5 0
BBX 5 9 0 -2
BITMAP
00
00
60
20
50
70
D8
00
00
ENDCHAR

STARTCHAR afii9794
ENCODING 194
SWIDTH 600 0
DWIDTH 5 0
BBX 5 9 0 -2
BITMAP
00
00
70
28
30
28
70
00
00
ENDCHAR

STARTCHAR afii9796
ENCODING 195
SWIDTH 600 0
DWIDTH 5 0
BBX 5 9 0 -2
BITMAP
00
00
78
28
20
20
70
00
00
ENDCHAR

STARTCHAR afii9797
ENCODING 196
SWIDTH 600 0
DWIDTH 5 0
BBX 5 9 0 -2
BITMAP
00
00
20
20
50
50
F8
00
00
ENDCHAR

STARTCHAR afii9798
ENCODING 197
SWIDTH 600 0
DWIDTH 5 0
BBX 5 9 0 -2
BITMAP
00
00
78
28
30
28
78
00
00
ENDCHAR

STARTCHAR afii9801
ENCODING 198
SWIDTH 600 0
DWIDTH 5 0
BBX 5 9 0 -2
BITMAP
00
00
78
50
20
28
78
00
00
ENDCHAR

STARTCHAR afii9802
ENCODING 199
SWIDTH 600 0
DWIDTH 5 0
BBX 5 9 0 -2
BITMAP
00
00
D8
50
70
50
D8
00
00
ENDCHAR

STARTCHAR afii9803
ENCODING 200
SWIDTH 600 0
DWIDTH 5 0
BBX 5 9 0 -2
BITMAP
00
00
30
68
78
68
30
00
00
ENDCHAR

STARTCHAR afii9804
ENCODING 201
SWIDTH 600 0
DWIDTH 5 0
BBX 5 9 0 -2
BITMAP
00
00
70
20
20
20
70
00
00
ENDCHAR

STARTCHAR afii9805
ENCODING 202
SWIDTH 600 0
DWIDTH 5 0
BBX 5 9 0 -2
BITMAP
00
00
58
50
60
50
58
00
00
ENDCHAR

STARTCHAR afii9806
ENCODING 203
SWIDTH 600 0
DWIDTH 5 0
BBX 5 9 0 -2
BITMAP
00
00
60
20
50
50
D8
00
00
ENDCHAR

STARTCHAR afii9807
ENCODING 204
SWIDTH 600 0
DWIDTH 5 0
BBX 5 9 0 -2
BITMAP
00
00
88
D8
A8
88
88
00
00
ENDCHAR

STARTCHAR afii9808
ENCODING 205
SWIDTH 600 0
DWIDTH 5 0
BBX 5 9 0 -2
BITMAP
00
00
48
68
58
48
48
00
00
ENDCHAR

STARTCHAR afii9809
ENCODING 206
SWIDTH 600 0
DWIDTH 5 0
BBX 5 9 0 -2
BITMAP
00
00
78
00
30
00
78
00
00
ENDCHAR

STARTCHAR afii9810
ENCODING 207
SWIDTH 600 0
DWIDTH 5 0
BBX 5 9 0 -2
BITMAP
00
00
30
68
68
68
30
00
00
ENDCHAR

STARTCHAR afii9811
ENCODING 208
SWIDTH 600 0
DWIDTH 5 0
BBX 5 9 0 -2
BITMAP
00
00
F8
50
50
50
D8
00
00
ENDCHAR

STARTCHAR afii9813
ENCODING 209
SWIDTH 600 0
DWIDTH 5 0
BBX 5 9 0 -2
BITMAP
00
00
70
28
30
20
70
00
00
ENDCHAR

STARTCHAR afii9814
ENCODING 211
SWIDTH 600 0
DWIDTH 5 0
BBX 5 9 0 -2
BITMAP
00
00
78
48
20
48
78
00
00
ENDCHAR

STARTCHAR afii9816
ENCODING 212
SWIDTH 600 0
DWIDTH 5 0
BBX 5 9 0 -2
BITMAP
00
00
F8
A8
20
20
70
00
00
ENDCHAR

STARTCHAR afii9817
ENCODING 213
SWIDTH 600 0
DWIDTH 5 0
BBX 5 9 0 -2
BITMAP
00
00
D8
50
20
20
70
00
00
ENDCHAR

STARTCHAR afii9818
ENCODING 214
SWIDTH 600 0
DWIDTH 5 0
BBX 5 9 0 -2
BITMAP
00
00
20
70
A8
70
20
00
00
ENDCHAR

STARTCHAR afii9819
ENCODING 215
SWIDTH 600 0
DWIDTH 5 0
BBX 5 9 0 -2
BITMAP
00
00
D8
50
20
50
D8
00
00
ENDCHAR

STARTCHAR afii9820
ENCODING 216
SWIDTH 600 0
DWIDTH 5 0
BBX 5 9 0 -2
BITMAP
00
00
A8
A8
70
20
70
00
00
ENDCHAR

STARTCHAR afii9821
ENCODING 217
SWIDTH 600 0
DWIDTH 5 0
BBX 5 9 0 -2
BITMAP
00
00
30
68
68
30
78
00
00
ENDCHAR

STARTCHAR afii9943
ENCODING 218
SWIDTH 600 0
DWIDTH 5 0
BBX 5 9 0 -2
BITMAP
50
00
70
20
20
20
70
00
00
ENDCHAR

STARTCHAR afii9944
ENCODING 219
SWIDTH 600 0
DWIDTH 5 0
BBX 5 9 0 -2
BITMAP
50
00
D8
50
20
20
70
00
00
ENDCHAR

STARTCHAR afii9968
ENCODING 220
SWIDTH 600 0
DWIDTH 5 0
BBX 5 9 0 -2
BITMAP
10
20
00
68
D0
D0
68
00
00
ENDCHAR

STARTCHAR afii9969
ENCODING 221
SWIDTH 600 0
DWIDTH 5 0
BBX 5 9 0 -2
BITMAP
10
20
00
78
20
48
30
00
00
ENDCHAR

STARTCHAR afii9970
ENCODING 222
SWIDTH 600 0
DWIDTH 5 0
BBX 5 9 0 -2
BITMAP
10
20
00
E0
50
50
D0
10
00
ENDCHAR

STARTCHAR afii9971
ENCODING 223
SWIDTH 600 0
DWIDTH 5 0
BBX 5 9 0 -2
BITMAP
10
20
00
20
20
20
30
00
00
ENDCHAR

STARTCHAR afii9978
ENCODING 224
SWIDTH 600 0
DWIDTH 5 0
BBX 5 9 0 -2
BITMAP
10
A8
00
D8
50
50
20
00
00
ENDCHAR

STARTCHAR afii9825
ENCODING 225
SWIDTH 600 0
DWIDTH 5 0
BBX 5 9 0 -2
BITMAP
00
00
00
68
D0
D0
68
00
00
ENDCHAR

STARTCHAR afii9826
ENCODING 226
SWIDTH 600 0
DWIDTH 5 0
BBX 5 9 0 -2
BITMAP
00
00
30
48
50
48
70
40
40
ENDCHAR

STARTCHAR afii9828
ENCODING 227
SWIDTH 600 0
DWIDTH 5 0
BBX 5 9 0 -2
BITMAP
00
00
00
D8
50
20
20
20
20
ENDCHAR

STARTCHAR afii9829
ENCODING 228
SWIDTH 600 0
DWIDTH 5 0
BBX 5 9 0 -2
BITMAP
00
00
38
30
68
68
30
00
00
ENDCHAR

STARTCHAR afii9830
ENCODING 229
SWIDTH 600 0
DWIDTH 5 0
BBX 5 9 0 -2
BITMAP
00
00
00
78
20
48
30
00
00
ENDCHAR

STARTCHAR afii9833
ENCODING 230
SWIDTH 600 0
DWIDTH 5 0
BBX 5 9 0 -2
BITMAP
00
00
70
20
40
40
30
10
20
ENDCHAR

STARTCHAR afii9834
ENCODING 231
SWIDTH 600 0
DWIDTH 5 0
BBX 5 9 0 -2
BITMAP
00
00
00
E0
50
50
D0
10
10
ENDCHAR

STARTCHAR afii9835
ENCODING 232
SWIDTH 600 0
DWIDTH 5 0
BBX 5 9 0 -2
BITMAP
00
00
30
48
78
48
30
00
00
ENDCHAR

STARTCHAR afii9836
ENCODING 233
SWIDTH 600 0
DWIDTH 5 0
BBX 5 9 0 -2
BITMAP
00
00
00
20
20
20
30
00
00
ENDCHAR

STARTCHAR afii9837
ENCODING 234
SWIDTH 600 0
DWIDTH 5 0
BBX 5 9 0 -2
BITMAP
00
00
00
68
30
30
68
00
00
ENDCHAR

STARTCHAR afii9838
ENCODING 235
SWIDTH 600 0
DWIDTH 5 0
BBX 5 9 0 -2
BITMAP
00
00
E0
20
60
50
D8
00
00
ENDCHAR

STARTCHAR afii9839
ENCODING 236
SWIDTH 600 0
DWIDTH 5 0
BBX 5 9 0 -2
BITMAP
00
00
00
D0
50
50
78
40
40
ENDCHAR

STARTCHAR afii9840
ENCODING 237
SWIDTH 600 0
DWIDTH 5 0
BBX 5 9 0 -2
BITMAP
00
00
00
D0
48
30
20
00
00
ENDCHAR

STARTCHAR afii9841
ENCODING 238
SWIDTH 600 0
DWIDTH 5 0
BBX 5 9 0 -2
BITMAP
00
00
70
40
20
40
30
10
20
ENDCHAR

STARTCHAR afii9842
ENCODING 239
SWIDTH 600 0
DWIDTH 5 0
BBX 5 9 0 -2
BITMAP
00
00
00
30
68
68
30
00
00
ENDCHAR

STARTCHAR afii9843
ENCODING 240
SWIDTH 600 0
DWIDTH 5 0
BBX 5 9 0 -2
BITMAP
00
00
00
F8
50
50
D8
00
00
ENDCHAR

STARTCHAR afii9845
ENCODING 241
SWIDTH 600 0
DWIDTH 5 0
BBX 5 9 0 -2
BITMAP
00
00
00
30
48
48
70
40
40
ENDCHAR

STARTCHAR afii9847
ENCODING 242
SWIDTH 600 0
DWIDTH 5 0
BBX 5 9 0 -2
BITMAP
00
00
00
38
48
40
30
10
20
ENDCHAR

STARTCHAR afii9846
ENCODING 243
SWIDTH 600 0
DWIDTH 5 0
BBX 5 9 0 -2
BITMAP
00
00
00
78
D0
D0
60
00
00
ENDCHAR

STARTCHAR afii9848
ENCODING 244
SWIDTH 600 0
DWIDTH 5 0
BBX 5 9 0 -2
BITMAP
00
00
00
70
20
20
30
00
00
ENDCHAR

STARTCHAR afii9849
ENCODING 245
SWIDTH 600 0
DWIDTH 5 0
BBX 5 9 0 -2
BITMAP
00
00
00
D8
50
50
20
00
00
ENDCHAR

STARTCHAR afii9850
ENCODING 246
SWIDTH 600 0
DWIDTH 5 0
BBX 5 9 0 -2
BITMAP
00
00
00
50
A8
A8
70
20
20
ENDCHAR

STARTCHAR afii9851
ENCODING 247
SWIDTH 600 0
DWIDTH 5 0
BBX 5 9 0 -2
BITMAP
00
00
00
C8
50
20
20
50
98
ENDCHAR

STARTCHAR afii9852
ENCODING 248
SWIDTH 600 0
DWIDTH 5 0
BBX 5 9 0 -2
BITMAP
00
20
20
A8
A8
A8
70
20
20
ENDCHAR

STARTCHAR afii9853
ENCODING 249
SWIDTH 600 0
DWIDTH 5 0
BBX 5 9 0 -2
BITMAP
00
00
00
50
88
A8
50
00
00
ENDCHAR

STARTCHAR afii9975
ENCODING 250
SWIDTH 600 0
DWIDTH 5 0
BBX 5 9 0 -2
BITMAP
00
50
00
20
20
20
30
00
00
ENDCHAR

STARTCHAR afii9976
ENCODING 251
SWIDTH 600 0
DWIDTH 5 0
BBX 5 9 0 -2
BITMAP
00
50
00
50
50
50
20
00
00
ENDCHAR

STARTCHAR afii9972
ENCODING 252
SWIDTH 600 0
DWIDTH 5 0
BBX 5 9 0 -2
BITMAP
10
20
00
30
68
68
30
00
00
ENDCHAR

STARTCHAR afii9973
ENCODING 253
SWIDTH 600 0
DWIDTH 5 0
BBX 5 9 0 -2
BITMAP
10
20
00
D8
50
50
20
00
00
ENDCHAR

STARTCHAR afii9974
ENCODING 254
SWIDTH 600 0
DWIDTH 5 0
BBX 5 9 0 -2
BITMAP
10
20
00
50
88
A8
50
00
00
ENDCHAR
ENDFONT
